<?xml version="1.0" encoding="utf-8"?>
<svg viewBox="0 0 458 112" xmlns="http://www.w3.org/2000/svg" xmlns:bx="https://boxy-svg.com">
  <defs>
    <bx:grid x="0" y="0" width="457.706" height="111.822"/>
  </defs>
  <g transform="matrix(1, 0, 0, 1, -69.067001, -73.639992)">
    <path fill-rule="evenodd" clip-rule="evenodd" fill="#FFDD00" d="M323.453,182.282c0.265-0.008,0.842,0.195,1.548,0.478l1.452,0.09&#10;&#9;&#9;c0.298,0.018,0.552-0.364,0.927-0.576l2.381-1.691c2.081-0.943,2.074-2.408,2.019-5.012c-0.009-0.395-0.232-0.77-0.339-1.148&#10;&#9;&#9;c-0.73-2.585-1.817-5.732-2.229-9.384c-0.173-1.529,0.825-3.106,0.443-4.605c-1.457-5.725-3.463-12.155-5.396-18.921&#10;&#9;&#9;c-4.267-14.928-9.985-29.354-13.613-44.445c-1.329-5.523-1.872-13.926-4.387-19.007c-0.702-1.417-0.575-2.221-0.889-1.125&#10;&#9;&#9;c-0.75,2.608-2.659,9.528-6.153,17.719c-0.606,1.426-2.497,1.622-3.179,3.117c-1.014,2.224-2.044,4.539-3.008,6.914&#10;&#9;&#9;c-0.537,1.324-1.429,2.565-1.997,3.882c-0.52,1.207,0.522,2.61,0.141,3.869c-0.337,1.111-2.008,2.448-2.379,3.559&#10;&#9;&#9;c-1.016,3.042-2.062,6.039-2.452,9.042l-0.49,5.232c-2.84,7.393-5.597,14.705-8.231,21.271c-0.414,1.031-2.259,2.455-2.602,3.353&#10;&#9;&#9;c-0.85,2.217-1.802,4.29-2.555,6.278c-0.294,0.773-0.28,1.035-0.569,1.81c-1.604,4.291-2.85,7.911-3.789,10.513&#10;&#9;&#9;c-0.254,0.703,0.246,1.539,0.202,2.278c-0.043,0.721,0.651,0.533,0.815,0.635c0.419,0.258,0.765,0.633,1.06,1.041l2.221-0.051&#10;&#9;&#9;c1.26,0.075,2.994,3.679,4.134,4.062c1.532,0.516,3.507,0.185,5.479,0.283c0.411,0.08,0.804,0.265,1.229,0.327&#10;&#9;&#9;c1.268,0.186,2.78,0.259,3.968-0.313c0.154-0.073,1.278-0.022,1.633,0.013c2.143,0.208,4.082,1.081,6.129,1.68l12.729,0.836&#10;&#9;&#9;c2.239,0.218,4.546-0.006,6.802,0.122C317.699,184.586,320.286,182.383,323.453,182.282"/>
    <path fill-rule="evenodd" clip-rule="evenodd" fill="#E30613" d="M323.842,177.575c0.267-0.008,0.844,0.189,1.549,0.462l1.453,0.09&#10;&#9;&#9;c0.297,0.018,0.551-0.349,0.926-0.551l2.374-1.616c2.077-0.901,2.066-2.307,2.001-4.804c-0.011-0.379-0.234-0.739-0.344-1.103&#10;&#9;&#9;c-0.738-2.481-1.835-5.504-2.259-9.007c-0.179-1.468,0.814-2.978,0.427-4.417c-1.476-5.496-3.503-11.67-5.46-18.164&#10;&#9;&#9;c-4.315-14.33-10.082-28.185-13.76-42.668c-1.347-5.303-1.918-13.365-4.45-18.246c-0.706-1.362-0.581-2.131-0.892-1.081&#10;&#9;&#9;c-0.74,2.502-2.626,9.135-6.091,16.984c-0.604,1.366-2.492,1.55-3.168,2.982c-1.007,2.131-2.029,4.349-2.985,6.626&#10;&#9;&#9;c-0.532,1.268-1.42,2.457-1.982,3.719c-0.517,1.157,0.529,2.504,0.152,3.711c-0.332,1.066-1.999,2.344-2.365,3.409&#10;&#9;&#9;c-1.006,2.916-2.042,5.788-2.423,8.668l-0.473,5.018c-2.814,7.086-5.544,14.093-8.157,20.386c-0.41,0.988-2.25,2.351-2.59,3.21&#10;&#9;&#9;c-0.841,2.124-1.786,4.111-2.533,6.017c-0.29,0.742-0.276,0.993-0.562,1.735c-1.589,4.113-2.822,7.582-3.753,10.075&#10;&#9;&#9;c-0.252,0.674,0.251,1.477,0.21,2.187c-0.041,0.691,0.652,0.513,0.817,0.61c0.42,0.249,0.767,0.608,1.062,1.001l2.22-0.043&#10;&#9;&#9;c1.261,0.075,3.006,3.536,4.147,3.906c1.533,0.498,3.507,0.186,5.478,0.285c0.411,0.077,0.806,0.256,1.231,0.316&#10;&#9;&#9;c1.267,0.181,2.779,0.255,3.966-0.291c0.153-0.07,1.278-0.019,1.632,0.016c2.143,0.204,4.084,1.047,6.134,1.626l12.729,0.832&#10;&#9;&#9;c2.239,0.215,4.545,0.006,6.801,0.134C318.097,179.771,320.676,177.663,323.842,177.575"/>
    <path fill-rule="evenodd" clip-rule="evenodd" fill="#FFFFFF" d="M279.609,167.983c-0.612-0.753-0.636-5.941,1.11-8.442&#10;&#9;&#9;c1.745-2.501,2.562-3.491,4.125-5.258c1.563-1.768,3.82-5.456,3.735-6.498c-0.086-1.042,5.271-7.268,6.057-3.536&#10;&#9;&#9;c0.785,3.73-1.257,6.582-1.944,7.274c-0.688,0.69-3.976,3.386-3.021,5.484c0.955,2.1,1.251,5.106,2.162,6.402&#10;&#9;&#9;c0.912,1.296,0.445,6.099-1.346,6.226c-1.792,0.126-3.363-1.137-5.601-0.594C282.648,169.586,280.221,168.736,279.609,167.983"/>
    <path fill-rule="evenodd" clip-rule="evenodd" fill="#009640" d="M301.113,127.736c-0.264,1.026-2.132,3.866-4.863,4.363&#10;&#9;&#9;c-2.731,0.496-4.684,0.267-5.876,1.947c0,0,2.079-4.771,5.076-5.933C297.383,127.362,301.113,127.736,301.113,127.736"/>
    <path fill-rule="evenodd" clip-rule="evenodd" fill="#FFFFFF" d="M318.755,170.383c-2.989-0.39-7.325,0.408-8.554-2.845&#10;&#9;&#9;c-1.231-3.253-1.534-5.805,0.109-7.408s1.578-2.352,1.36-4.27c-0.219-1.918,3.788-12.72,5.837-11.749&#10;&#9;&#9;c2.047,0.972,3.656,12,2.419,13.619c-0.785,1.028,2.293,1.198,3.334,3.696c1.041,2.497,1.718,3.592-0.339,4.107&#10;&#9;&#9;c-2.057,0.517-1.896,0.092-1.713,2.441S321.744,170.771,318.755,170.383"/>
    <path fill-rule="evenodd" clip-rule="evenodd" fill="#FFFFFF" d="M302.045,121.44c-1.387,0.025-4.205-0.895-4.906-2.947&#10;&#9;&#9;c-0.699-2.053-2.237-4.898,0.71-7.054c2.948-2.156,5.2-2.129,7.98-2.39c2.78-0.261,6.499,7.905,3.558,8.582&#10;&#9;&#9;c-2.939,0.677-4.839-0.702-5.112,1.08S303.431,121.416,302.045,121.44"/>
    <path fill-rule="evenodd" clip-rule="evenodd" fill="#009640" d="M301.562,163.612c-0.949-0.677-3.041-3.404-2.277-5.673&#10;&#9;&#9;c0.763-2.271,1.92-3.62,0.723-5.298c0,0,4.009,3.79,3.819,6.57C303.702,161.007,301.562,163.612,301.562,163.612"/>
    <path fill-rule="evenodd" clip-rule="evenodd" fill="#FFFFFF" d="M309.544,127.984c2.454,0.514,6.142,0.813,6.878,4.046&#10;&#9;&#9;c0.736,3.234-0.417,4.869-1.54,7.034c-1.123,2.163-11.354,0.8-10.579-1.689c0.777-2.489,3.141-3.189,1.45-4.28&#10;&#9;&#9;S307.09,127.471,309.544,127.984"/>
    <path fill-rule="evenodd" clip-rule="evenodd" fill="#E30613" d="M461.283,106.706c3.084,5.952,2.181,12.526-2.71,19.721&#10;&#9;&#9;c-3.941,5.806-9.852,11.448-17.731,16.929c-6.413,4.464-12.011,7.535-16.796,9.216c-6.607,2.319-13.722,2.883-21.342,1.689&#10;&#9;&#9;c-9.203-1.442-15.511-5.457-18.925-12.048c-2.819-5.443-3.59-12.232-2.313-20.37c1.105-7.122,3.366-13.519,6.783-19.192&#10;&#9;&#9;c4.091-6.763,9.029-11.16,14.817-13.192c0.729-0.256,2.154-0.154,4.278,0.307c2.169,0.443,3.579,0.928,4.228,1.454&#10;&#9;&#9;c-4.719,3.366-7.648,5.25-8.788,5.65c-0.318,0.111-0.68,0.088-1.086-0.072c-0.428-0.2-0.801-0.245-1.119-0.134&#10;&#9;&#9;c-0.502,0.177-1.824,2.198-3.969,6.067c-2.937,5.352-4.807,10.683-5.611,15.992c-0.956,6.365-0.158,12.014,2.397,16.946&#10;&#9;&#9;c3.325,6.421,9.356,10.058,18.092,10.909c6.18,0.594,12.094-0.102,17.744-2.086c8.34-2.928,14.579-7.154,18.72-12.679&#10;&#9;&#9;c4.835-6.471,5.347-13.383,1.536-20.741c-2.182-4.209-5.562-7.092-10.139-8.652c-4.553-1.616-9.108-1.624-13.667-0.024&#10;&#9;&#9;c-2.916,1.024-5.471,2.901-7.666,5.631c-2.678,3.353-3.236,6.539-1.673,9.559c0.728,1.403,1.932,2.738,3.612,4.008&#10;&#9;&#9;c1.95,1.475,3.608,1.973,4.974,1.494c0.274-0.096,1.215-0.777,2.82-2.045s2.774-2.13,3.507-2.589&#10;&#9;&#9;c0.358,0.277,0.942,0.624,1.751,1.044c0.253,1.218-1.558,3.387-5.435,6.507c-3.604,2.924-6.271,4.688-8.001,5.296&#10;&#9;&#9;c-3.008,1.057-6.068,0.397-9.186-1.976c-2.238-1.725-3.932-3.694-5.076-5.905c-2.071-3.997-0.996-8.42,3.225-13.27&#10;&#9;&#9;c2.812-3.198,6.759-6.393,11.839-9.583c4.027-2.52,7.157-4.171,9.39-4.957c5.605-1.967,11.309-2.135,17.108-0.504&#10;&#9;&#9;C453.44,96.973,458.243,100.838,461.283,106.706"/>
    <path fill-rule="evenodd" clip-rule="evenodd" fill="#E30613" d="M378.469,151.28c-2.1,1.247-4.681,2.444-7.744,3.591&#10;&#9;&#9;c-1.149-3.345-1.829-6.912-2.041-10.705l-1.403-24.256c-0.127-1.846-0.691-6.612-1.693-14.298c-1.531,2.245-3.237,5.414-5.12,9.504&#10;&#9;&#9;c-2.189,4.741-3.532,8.583-4.027,11.528c-3.87,2.393-6.284,3.589-7.241,3.588c-0.574,0-2.754-1.671-6.535-5.016&#10;&#9;&#9;c-3.785-3.396-5.919-5.145-6.402-5.244c0.885,2.745,2.163,6.863,3.834,12.353c1.407,4.841,2.359,9.159,2.858,12.951&#10;&#9;&#9;c-3.52,2.793-5.661,4.188-6.427,4.188c-0.768,0-1.337-0.475-1.713-1.423c-0.987-12.925-5.538-27.998-13.652-45.221&#10;&#9;&#9;c1.808-1.345,4.131-2.443,6.968-3.29l22.18,21.495c1.413-2.744,3.513-6.836,6.294-12.273c3.135-6.138,5.254-10.853,6.356-14.147&#10;&#9;&#9;c4.288-1.595,6.624-2.392,7.006-2.392c1.341,0.001,2.459,3.195,3.357,9.584c0.475,3.244,1.065,8.086,1.773,14.523l1.401,24.181&#10;&#9;&#9;c0.125,1.797,0.423,3.692,0.891,5.689C377.969,148.586,378.33,150.282,378.469,151.28"/>
    <path fill-rule="evenodd" clip-rule="evenodd" fill="#E30613" d="M510.288,84c0.788,4.604-2.874,10.806-10.987,18.605&#10;&#9;&#9;c-1.517,1.403-3.792,3.507-6.826,6.313c-3.217,3.105-7.098,6.651-11.638,10.639c-4.902,4.363-8.555,7.991-10.956,10.884&#10;&#9;&#9;l0.167,0.976c13.027,4.537-7.897,5.035-8.231,3.085c-0.241-1.408,3.274-5.407,10.551-11.997&#10;&#9;&#9;c10.849-9.849,17.576-16.178,20.182-18.986c7.1-7.621,10.325-13.326,9.675-17.117c-0.537-3.14-3.573-5.063-9.106-5.765&#10;&#9;&#9;c-3.151-0.388-6.263-0.391-9.332-0.014c-3.813,0.469-7.594,1.403-11.343,2.805c-6.428,2.393-9.33,5.404-8.709,9.033&#10;&#9;&#9;c0.223,1.3,1.621,3.092,4.195,5.373c0,0-11.751,0.007-12.038-1.672c-0.927-5.415,3.508-10.439,13.303-15.072&#10;&#9;&#9;c7.068-3.358,13.439-5.386,19.114-6.083c4.231-0.52,8.222-0.375,11.969,0.436C506.191,76.707,509.528,79.56,510.288,84"/>
    <path fill-rule="evenodd" clip-rule="evenodd" fill="#E30613" d="M469.419,146.598c0.094,2.626-0.389,4.706-1.449,6.236&#10;&#9;&#9;c-1.013,1.531-2.548,2.267-4.6,2.203l-2.143-0.065c-0.527-1.021-0.812-2.118-0.854-3.292c-0.18-4.974,2.163-7.388,7.027-7.238&#10;&#9;&#9;c0.356,0.011,0.769,0.275,1.231,0.792C469.14,145.696,469.403,146.15,469.419,146.598"/>
    <path fill-rule="evenodd" clip-rule="evenodd" fill="#E30613" d="M493.133,156.65c0.868-2.311,1.051-4.488,0.552-6.529&#10;&#9;&#9;c-0.459-2.016-1.625-3.635-3.494-4.857l-1.952-1.276c-0.78,0.592-1.364,1.405-1.752,2.438c-1.645,4.376-0.249,8.015,4.185,10.913&#10;&#9;&#9;c0.326,0.213,0.775,0.23,1.347,0.054C492.614,157.291,492.985,157.045,493.133,156.65 M526.014,91.294&#10;&#9;&#9;c0.177-0.417-0.647-1.766-2.473-4.044c-1.762-2.3-2.988-3.651-3.675-4.053c-1.619,2.579-16.695,30.401-25.21,46.578&#10;&#9;&#9;c3.187,4,4.997,6.125,5.427,6.376c1.117,0.652,1.948,0.328,2.495-0.971c0.097-0.232,0.189-0.581,0.281-1.05&#10;&#9;&#9;c0.132-0.441,0.236-0.757,0.314-0.941L526.014,91.294z"/>
    <path fill-rule="evenodd" clip-rule="evenodd" fill="#E30613" d="M144.017,91.689c0.406,6.353-3.251,13.337-10.974,20.958&#10;&#9;&#9;c-4.979,4.867-11.336,9.732-19.069,14.596c-6.252,3.942-10.722,6.431-13.41,7.464l4.179,5.884c1.813,2.494,3.358,3.806,4.634,3.935&#10;&#9;&#9;c0.616,0.157,1.267,0.833,1.949,2.029c0.682,1.196,1.05,2.19,1.102,2.984c0.059,0.916-1.297,2.138-4.064,3.665&#10;&#9;&#9;c-2.45,1.33-3.977,2.008-4.582,2.034c-1.265,0.054-4.07-2.889-8.419-8.826c-0.902-1.187-3.146-4.366-6.728-9.54&#10;&#9;&#9;c-3.893-0.507-6.486-1.436-7.785-2.789c0.177-0.682,1.891-2.316,5.142-4.907c-1.867-8.492-2.934-14.817-3.2-18.97&#10;&#9;&#9;c-0.073-1.16-0.073-2.876,0.001-5.144c0.13-2.273,0.158-3.989,0.084-5.149l-0.311-4.855c-2.558,1.396-3.741,3.559-3.553,6.49&#10;&#9;&#9;c0.086,1.346,0.497,2.582,1.229,3.714c-2.768,1.527-4.481,2.306-5.141,2.334c-0.221,0.01-0.611-0.066-1.173-0.226&#10;&#9;&#9;c-0.561-0.16-1.007-0.233-1.336-0.219c-2.089,0.089-3.196-0.873-3.325-2.888c-0.2-3.115,0.877-6.071,3.232-8.866&#10;&#9;&#9;c1.23-1.461,3.474-3.427,6.732-5.893c2.47-1.882,3.731-3.253,3.788-4.112c0.054-0.86,0.126-3.19,0.213-6.992&#10;&#9;&#9;c1.001-0.715,2.484-1.636,4.452-2.762c2.344-1.265,3.872-1.911,4.587-1.942c1.32-0.056,2.037,0.832,2.155,2.663l0.069,1.101&#10;&#9;&#9;c-0.022,0.49-0.028,0.826-0.017,1.012c0.047,0.731,0.164,1.277,0.352,1.637c7.846-3.153,15.339-4.881,22.484-5.188&#10;&#9;&#9;c5.825-0.25,11.058,0.566,15.698,2.45C139.914,80.136,143.582,84.909,144.017,91.689 M132.817,93.64&#10;&#9;&#9;c-0.318-4.948-3.331-8.555-9.043-10.821c-3.903-1.547-8.024-2.229-12.366-2.042c-5.771,0.247-9.785,0.817-12.042,1.71&#10;&#9;&#9;c-4.193,1.65-6.44,4.839-6.745,9.567c-0.082,1.29,0.163,6.425,0.739,15.401c0.227,3.543,0.723,7.411,1.488,11.604&#10;&#9;&#9;c1.016,5.528,2.154,9.125,3.419,10.784c4.13-0.054,9.316-2.542,15.559-7.464c5.136-4.141,9.376-8.486,12.722-13.039&#10;&#9;&#9;C131.01,103.271,133.099,98.036,132.817,93.64z"/>
    <path fill-rule="evenodd" clip-rule="evenodd" fill="#E30613" d="M170.516,106.439c-1.232,2.064-2.888,3.444-4.964,4.139&#10;&#9;&#9;c-2.022,0.716-4.271,0.581-6.74-0.405l-2.579-1.027c-0.12-1.027,0.096-2,0.646-2.924c2.331-3.909,6.426-4.698,12.281-2.363&#10;&#9;&#9;c0.432,0.172,0.796,0.562,1.097,1.173C170.638,105.618,170.725,106.086,170.516,106.439 M145.791,151.071&#10;&#9;&#9;c-0.235,0.395-2.025,0.497-5.37,0.306c-3.315-0.127-5.403-0.361-6.264-0.704c1.062-2.895,5.527-12.723,13.398-29.488&#10;&#9;&#9;c5.857,0.322,9.057,0.592,9.594,0.807c1.396,0.557,1.728,1.451,0.995,2.681c-0.132,0.222-0.369,0.506-0.712,0.859&#10;&#9;&#9;c-0.29,0.373-0.487,0.649-0.593,0.824L145.791,151.071z"/>
    <path fill-rule="evenodd" clip-rule="evenodd" fill="#E30613" d="M251.997,118.501c1.036,4.214-3.549,10.268-13.756,18.159&#10;&#9;&#9;c-1.909,1.424-4.771,3.561-8.588,6.409c-4.05,3.142-8.933,6.745-14.648,10.811c-6.171,4.444-10.765,8.106-13.78,10.985l0.22,0.894&#10;&#9;&#9;c16.531,3.177,32.383,5.581,47.558,7.217c0.465-0.844,0.209-3.248-0.766-7.213c-1.061-4.312-3.314-9.756-6.762-16.326&#10;&#9;&#9;c2.492-2.028,5.543-3.653,9.148-4.875c1.183,2.082,2.592,5.082,4.228,8.998c1.814,4.403,2.804,7.184,2.967,8.343L260,175.996&#10;&#9;&#9;c-1.221,0.496-2.71,1.265-4.468,2.306c-1.279,0.763-2.623,1.251-4.035,1.468c-3.117,0.478-13.718-0.677-31.801-3.46&#10;&#9;&#9;c-18.66-2.901-28.209-5.244-28.648-7.028c-0.316-1.29,4.103-5.285,13.259-11.987c13.654-10.015,22.117-16.431,25.394-19.247&#10;&#9;&#9;c8.925-7.645,12.961-13.202,12.108-16.672c-0.707-2.875-4.567-4.419-11.578-4.63c-3.994-0.109-7.934,0.135-11.816,0.731&#10;&#9;&#9;c-4.822,0.738-9.603,1.908-14.337,3.509c-8.117,2.735-11.768,5.765-10.951,9.086c0.292,1.191,2.078,2.744,5.358,4.658&#10;&#9;&#9;c0,0-14.878,0.942-15.256-0.594c-1.219-4.958,4.353-9.979,16.717-15.063c8.921-3.682,16.971-6.074,24.149-7.175&#10;&#9;&#9;c5.352-0.82,10.405-1.003,15.155-0.548C246.749,112.052,250.997,114.437,251.997,118.501"/>
    <path fill-rule="evenodd" clip-rule="evenodd" fill="#E30613" d="M205.143,88.112c1.734,3.51-1.657,9.627-10.177,18.351&#10;&#9;&#9;c-1.602,1.586-4.005,3.966-7.208,7.139c-3.378,3.469-7.482,7.491-12.313,12.066c-5.208,4.987-9.022,9.009-11.445,12.068&#10;&#9;&#9;l0.367,0.744c16.565-0.141,32.336-0.837,47.319-2.088c4.944-0.157,7.426-5.711,5.794-9.014c-1.776-3.593,7.847,8.065,1.455,12.528&#10;&#9;&#9;c-1.107,0.894-2.323,1.561-3.654,2c-2.937,0.971-13.405,1.835-31.404,2.594c-18.578,0.758-28.233,0.394-28.969-1.094&#10;&#9;&#9;c-0.53-1.073,3.058-5.357,10.766-12.852c11.489-11.194,18.576-18.315,21.261-21.364c7.319-8.28,10.266-13.865,8.838-16.755&#10;&#9;&#9;c-1.184-2.396-5.19-3.066-12.019-2.012c-3.887,0.611-7.659,1.522-11.317,2.731c-4.544,1.501-8.972,3.372-13.28,5.613&#10;&#9;&#9;c-7.388,3.834-10.399,7.134-9.033,9.9c0.49,0.992,2.489,2.037,5.998,3.135l7.34,2.332c-2.71,2.864-4.619,4.48-5.728,4.847&#10;&#9;&#9;c-1.773,0.586-4.821,0.223-9.145-1.086c-4.266-1.329-6.716-2.634-7.349-3.914c-2.04-4.129,2.487-9.517,13.581-16.161&#10;&#9;&#9;c8.005-4.805,15.387-8.326,22.15-10.561c5.042-1.666,9.904-2.721,14.585-3.161C198.941,83.388,203.47,84.726,205.143,88.112"/>
    <path fill-rule="evenodd" clip-rule="evenodd" fill="#E30613" d="M271.73,101.912c-0.139,2.294-0.995,4.092-2.569,5.39&#10;&#9;&#9;c-1.513,1.302-3.644,1.889-6.389,1.764l-2.864-0.13c-0.604-0.909-0.875-1.875-0.813-2.902c0.261-4.345,3.644-6.369,10.148-6.072&#10;&#9;&#9;c0.479,0.021,1.002,0.267,1.572,0.732C271.447,101.115,271.754,101.521,271.73,101.912 M270.495,150.909&#10;&#9;&#9;c-0.026,0.439-1.622,1.102-4.787,1.984c-3.107,0.936-5.14,1.381-6.095,1.337c-0.418-3.005-1.045-13.484-1.883-31.441&#10;&#9;&#9;c5.538-1.558,8.607-2.324,9.204-2.297c1.552,0.072,2.287,0.79,2.205,2.157c-0.016,0.245-0.096,0.582-0.24,1.018&#10;&#9;&#9;c-0.087,0.437-0.136,0.752-0.148,0.948L270.495,150.909z"/>
  </g>
</svg>